<svg viewBox="0 0 100 100" xmlns="http://www.w3.org/2000/svg">
    <path d="M52.9114 97.1863C52.9114 95.8646 53.9391 94.7771 55.2516 94.6218C75.8366 92.1873 92.1649 75.8545 94.5981 55.2641C94.7532 53.9518 95.8405 52.9244 97.1619 52.9244V52.9244C98.6055 52.9244 99.757 54.1423 99.5957 55.5768C96.9974 78.6807 78.6624 97.0208 55.5646 99.6206C54.1297 99.7821 52.9114 98.6303 52.9114 97.1863V97.1863Z" fill="#E2E8F0"/>
    <path d="M2.66113 52.9244C3.98254 52.9244 5.06982 53.9518 5.22489 55.2641C7.6581 75.8545 23.9863 92.1872 44.5712 94.6218C45.8837 94.777 46.9114 95.8646 46.9114 97.1863V97.1863C46.9114 98.6302 45.6931 99.7821 44.2582 99.6206C21.1605 97.0207 2.82564 78.6806 0.227349 55.5768C0.066019 54.1423 1.21756 52.9244 2.66113 52.9244V52.9244Z" fill="#E2E8F0"/>
    <path d="M46.9114 2.66193C46.9114 3.98363 45.8837 5.07115 44.5712 5.22639C23.9866 7.66093 7.65859 23.9932 5.225 44.5832C5.0699 45.8954 3.98263 46.9228 2.66125 46.9228V46.9228C1.21765 46.9228 0.0661024 45.7049 0.227464 44.2704C2.82619 21.167 21.1608 2.82746 44.2582 0.227615C45.6931 0.0661003 46.9114 1.21795 46.9114 2.66193V2.66193Z" fill="#E2E8F0"/>
    <path d="M52.9114 2.6619C52.9114 3.98361 53.9391 5.07113 55.2516 5.22636C75.8363 7.66081 92.1644 23.9932 94.598 44.5832C94.7531 45.8954 95.8404 46.9228 97.1618 46.9228V46.9228C98.6054 46.9228 99.7569 45.7049 99.5956 44.2704C96.9968 21.1669 78.6621 2.82732 55.5646 0.227586C54.1297 0.066079 52.9114 1.21793 52.9114 2.6619V2.6619Z" fill="#E2E8F0"/>
</svg> 